<svg width="190px" height="210px" viewBox="0 0 190 210" version="1.1" xmlns="http://www.w3.org/2000/svg" xmlns:xlink="http://www.w3.org/1999/xlink">
  <path class="hexagon" fill="#E7792B" d="M179.900651,143.933364 C179.896894,149.457974 176.022503,156.171679 171.240383,158.932637 L103.586843,197.992427 C98.8076649,200.751686 91.0510903,200.750588 86.2669572,197.992802 L18.7059454,159.047658 C13.9196145,156.288606 10.0425734,149.570834 10.046328,144.048761 L10.0993493,66.0666357 C10.1031056,60.5420255 13.977497,53.8283212 18.7596173,51.0673628 L86.4131574,12.0075732 C91.1923351,9.24831368 98.9489097,9.24941241 103.733043,12.0071976 L171.294055,50.9523421 C176.080386,53.7113942 179.957427,60.4291661 179.953672,65.9512395 L179.900651,143.933364 Z"></path>
  <path class="logo-graphic" fill="#EBEBEA" d="M131.629348,102.73864 C123.715062,129.552646 110.725726,143.728561 102.671843,146.191784 C85.789534,101.027443 108.197208,93.282025 116.052953,85.8270604 C105.535846,90.1523359 91.9746103,98.706069 88.7796255,117.610292 C85.5846407,136.514515 87.9713101,140.965879 92.6298187,151.215048 C82.2545613,145.005204 74.5158983,134.823583 73.5837463,121.244334 C72.6515942,107.665086 81.4079692,96.2563555 97.6801012,84.6314741 C116.318639,71.3201631 125.505064,56.9416055 125.505064,56.9416055 C125.505064,56.9416055 138.152161,80.6394317 131.629348,102.73864 M56.5100535,88.8351645 C56.3299275,71.6939245 68.8036527,55.1335909 68.8036527,55.1335909 C91.2383453,73.1371841 92.7153785,77.8317178 93.7916313,81.8170054 C91.5535658,82.8009437 81.117516,90.2649146 78.1702044,95.7249838 C78.4989343,93.7503526 75.6799625,78.9575053 72.5570281,71.2908926 C78.7623686,97.8572253 69.2269488,113.102639 69.2269488,113.102639 C69.2269488,113.102639 56.6879279,105.976405 56.5100535,88.8351645 M134.401037,70.6379359 C131.978342,61.6676613 128.736074,55.5456291 128.60098,55.2889495 L125.777505,50 L122.550998,55.0502826 C122.440671,55.2214023 113.91846,68.3098074 97.1217107,80.7002243 C96.4394834,78.2189887 95.4825641,75.6139165 91.9881198,71.4710186 C88.072631,66.8282711 81.207579,60.5891569 70.9989382,52.3979273 L68.1777148,50.1328429 L66.0026934,53.0216136 C65.4623155,53.7376144 52.8129675,70.7437599 53.0020998,88.8711897 C53.1979868,107.811438 66.9100781,115.82029 67.4954876,116.151272 L70.0532768,117.605789 C69.9879811,118.884684 69.9947358,120.177088 70.0847988,121.485253 C71.021454,135.150061 78.3886072,146.779446 90.8285587,154.225404 L100.476557,160.002945 L95.8225519,149.765034 L95.4172684,148.871159 C91.1032508,139.403286 89.3177519,135.483294 92.2380446,118.195702 C92.4789631,116.781713 92.7806742,115.410504 93.1499325,114.084326 C92.4226738,123.313532 94.4896196,134.321481 99.386795,147.418893 L100.541853,150.510305 L103.698561,149.54438 C108.870429,147.963774 114.672737,143.032825 120.03824,135.661168 C126.124247,127.298819 131.296115,116.259347 134.993201,103.731584 C137.843695,94.0745794 137.638802,82.629824 134.401037,70.6379359"></path>
</svg>
