<svg width="190px" height="210px" viewBox="0 0 190 210" version="1.1" xmlns="http://www.w3.org/2000/svg" xmlns:xlink="http://www.w3.org/1999/xlink">
  <path class="hexagon" fill="#A63F5B" d="M179.900651,143.933364 C179.896894,149.457974 176.022503,156.171679 171.240383,158.932637 L103.586843,197.992427 C98.8076649,200.751686 91.0510903,200.750588 86.2669572,197.992802 L18.7059454,159.047658 C13.9196145,156.288606 10.0425734,149.570834 10.046328,144.048761 L10.0993493,66.0666357 C10.1031056,60.5420255 13.977497,53.8283212 18.7596173,51.0673628 L86.4131574,12.0075732 C91.1923351,9.24831368 98.9489097,9.24941241 103.733043,12.0071976 L171.294055,50.9523421 C176.080386,53.7113942 179.957427,60.4291661 179.953672,65.9512395 L179.900651,143.933364 Z"></path>
  <path class="logo-graphic" fill="#EBEBEA" d="M82.932,55 L83.988,60.792 C84.004,60.888 85.724,70.564 83.272,77.924 C82.388,80.568 79.352,84.796 76.136,89.276 C69.98,97.844 63,107.56 63,116.228 C63,128.236 68.62,149.736 89.672,154.152 L91.232,148.408 C85.676,146.548 80.02,140.076 79.912,129.8 C79.82,121.488 88.18,111.852 93.708,105.472 C95.892,102.956 97.616,100.968 98.62,99.356 C100.188,96.84 100.6,93.88 100.484,91.124 C101.852,92.996 102.92,95.348 102.96,98.156 C103.04,103.676 101.544,105.508 97.928,109.932 C96.188,112.064 94.02,114.712 91.552,118.428 C90.348,120.24 89.152,125.252 91.052,128.792 C92.224,130.984 94.332,132.192 96.98,132.192 C97.508,132.192 98.064,132.14 98.636,132.044 C101.804,131.512 103.328,129.744 104.052,128.356 C104.504,127.484 104.752,126.552 104.856,125.612 C107.14,127.836 109.068,131.004 108.108,135.008 C105.352,146.456 101.504,148.864 96.18,149.036 L96.212,154.996 L96.6,155 C115.104,155 127.396,125.384 127.396,118.28 C127.396,117.072 127.48,116.028 127.56,115.016 C127.984,109.632 127.852,106.08 120.252,95.716 L117.668,92.192 C116.256,85.632 112.748,80.036 107.584,73.584 C99.052,62.916 88.664,57.788 88.224,57.576 L82.932,55 Z M86.92,60.256 C86.92,60.256 97.048,65.18 105.256,75.444 C113.468,85.708 117.576,93.648 114.152,108.972 C118.804,102.68 117.712,101.312 117.848,97.48 C126.88,109.796 124.416,111.3 124.416,118.28 C124.416,124.908 112.62,152.02 96.6,152.02 C96.492,152.02 96.384,152.016 96.276,152.016 C103.776,151.772 108.164,147.516 111.004,135.704 C113.604,124.896 100.604,119.148 100.604,119.148 C100.604,119.148 104.848,127.98 98.14,129.104 C97.724,129.176 97.336,129.208 96.98,129.208 C91.616,129.208 92.94,121.728 94.036,120.08 C101.564,108.748 106.08,107.788 105.94,98.116 C105.8,88.144 95.68,83.156 95.68,83.156 C95.68,83.156 99.512,92.284 96.088,97.78 C92.668,103.272 76.792,117.116 76.932,129.832 C77.048,140.724 82.992,148.796 90.284,151.236 C71.316,147.256 65.984,127.812 65.984,116.228 C65.984,103.912 83.36,87.076 86.1,78.868 C88.836,70.656 86.92,60.256 86.92,60.256 Z M91.2316,148.4076 L96.1796,149.0356 L96.2116,154.9956 L89.6716,154.1516 L91.2316,148.4076 Z"></path>
</svg>
