<svg width="190px" height="210px" viewBox="0 0 190 210" version="1.1" xmlns="http://www.w3.org/2000/svg" xmlns:xlink="http://www.w3.org/1999/xlink">
  <path class="hexagon" fill="#2B7E99" d="M179.900651,143.933364 C179.896894,149.457974 176.022503,156.171679 171.240383,158.932637 L103.586843,197.992427 C98.8076649,200.751686 91.0510903,200.750588 86.2669572,197.992802 L18.7059454,159.047658 C13.9196145,156.288606 10.0425734,149.570834 10.046328,144.048761 L10.0993493,66.0666357 C10.1031056,60.5420255 13.977497,53.8283212 18.7596173,51.0673628 L86.4131574,12.0075732 C91.1923351,9.24831368 98.9489097,9.24941241 103.733043,12.0071976 L171.294055,50.9523421 C176.080386,53.7113942 179.957427,60.4291661 179.953672,65.9512395 L179.900651,143.933364 Z"></path>
  <path class="logo-graphic" fill="#EBEBEA" d="M68.4054802,149.263611 C53.1421328,145.039025 44.4060751,130.016865 48.930241,115.776659 C52.4414202,104.722665 64.8460635,98.35532 76.7023231,101.442517 C76.3240398,102.285403 75.9889164,103.153678 75.7045693,104.04734 C75.1764961,105.707724 74.8109069,107.370647 74.5900301,109.031031 C71.8379562,108.599433 69.0325672,109.020876 66.5445298,110.280128 C63.6020448,111.767872 61.4592862,114.240677 60.5046922,117.233938 C58.1410568,124.672662 62.7058436,132.522674 70.6802572,134.731441 C74.7905964,135.866291 79.2106709,135.594638 83.1153663,134.02819 C87.0886096,138.090292 92.2500176,141.225727 98.3000105,142.898805 C99.2546044,143.16538 100.219354,143.386257 101.18918,143.586823 C91.9402824,150.22836 79.8072921,152.416817 68.4054802,149.263611 M72.2720933,96.3953559 C68.2353797,96.1694015 64.2773693,96.788872 60.6392494,98.1319044 C61.3551948,97.0173652 62.3757979,96.0932371 63.6325106,95.4585337 C65.4909222,94.514095 67.6286032,94.3059123 69.6520377,94.8695289 C70.6726407,95.1487984 71.568842,95.6921045 72.2720933,96.3953559 M43.8145316,97.1620776 C47.3612542,85.9963754 59.9842354,79.6061815 71.9522028,82.9142556 C77.1288438,84.3486853 81.3305803,87.9512618 83.3260878,92.6201401 C81.647932,94.0698026 80.1551096,95.7200315 78.8983968,97.5530549 C78.7232187,97.4997398 78.5531182,97.4388083 78.3804789,97.3956485 C78.2687711,97.3601051 78.1519856,97.3372558 78.0326614,97.30679 C77.0247524,94.1789716 74.3691534,91.668085 70.9646043,90.7312627 C67.7580827,89.8401392 64.3713054,90.1752626 61.4288204,91.6630073 C58.4837966,93.1507521 56.3410379,95.6184789 55.3915216,98.6168178 C55.1401791,99.4140053 54.9624621,100.234042 54.8634484,101.054079 C50.0803236,104.214902 46.3533452,108.815232 44.5355546,114.433627 C42.2887046,108.94725 41.996741,102.879486 43.8145316,97.1620776 M80.1246438,130.489084 C77.5122046,131.293888 74.7068156,131.342125 71.9953626,130.588098 C66.4658266,129.062271 63.3024648,123.619054 64.9374608,118.457646 C65.5416984,116.568769 66.8923473,115.009937 68.74822,114.070576 C70.4695357,113.199763 72.4320386,112.966192 74.3259935,113.380019 C74.374231,116.647472 74.9886239,119.8413 76.0803137,122.870104 C75.2602769,123.144296 74.346304,123.184917 73.4678745,122.94373 L72.1502303,127.079457 C74.074651,127.610069 76.0726973,127.513594 77.8625609,126.868736 C78.5277301,128.115293 79.2842965,129.328846 80.1246438,130.489084 M127.98128,63.1165871 L125.508476,66.7648623 C142.980591,77.0572126 151.076868,97.1773105 145.191898,115.685262 C142.411897,124.446707 136.138488,131.672171 127.529372,136.033853 C118.917716,140.390457 109.003649,141.360284 99.6176547,138.760539 C84.3492297,134.538492 75.613172,119.521409 80.1398767,105.276126 C83.6840605,94.1104237 96.3095806,87.717691 108.275009,91.0308428 C112.794097,92.2824779 116.523615,95.0980222 118.770465,98.9646353 C121.014776,102.82871 121.517461,107.27925 120.176967,111.491142 C118.036747,118.229153 110.425384,122.085611 103.204998,120.090103 C97.6754623,118.559199 94.5070229,113.118521 96.1496353,107.957113 C96.7487953,106.068236 98.101983,104.509404 99.9603946,103.572582 C101.816267,102.628143 103.956487,102.419961 105.974844,102.983577 C107.477822,103.397404 108.714224,104.331687 109.463174,105.616327 C110.209585,106.900967 110.374608,108.378556 109.927777,109.779981 C109.265146,111.864347 106.909127,113.060128 104.67751,112.440658 L103.362405,116.578924 C108.038899,117.873719 112.976892,115.372988 114.363084,111.006228 C115.157733,108.49788 114.86323,105.854975 113.527814,103.559888 C112.192399,101.259723 109.976014,99.5866446 107.287411,98.8427722 C104.080889,97.9567263 100.694112,98.2867721 97.7541655,99.7745168 C94.8066029,101.267339 92.6638442,103.735066 91.7143279,106.728327 C89.3481537,114.172129 93.9154793,122.019602 101.894971,124.22837 C111.555156,126.899201 121.743415,121.737793 124.612275,112.722466 C126.303125,107.401113 125.67096,101.785257 122.837644,96.9031186 C120.956383,93.6788254 118.260163,91.0359204 115.000326,89.1571983 C113.040362,75.036317 104.52772,62.5885139 91.6559352,55 L89.1856696,58.6482752 C99.1048144,64.4951629 106.170333,73.5155677 109.183904,83.9475528 C105.675264,79.8981451 101.458295,76.3768106 96.7691058,73.6145814 L94.3039178,77.2628565 C98.3101657,79.626492 101.930514,82.609598 105.007556,86.0217635 C98.6072069,85.3210509 92.3058715,86.7859464 87.0987648,89.9036095 C84.4152388,84.5594069 79.3807714,80.4693781 73.2647694,78.7785283 C58.8544634,74.7925909 43.6520475,82.4902738 39.3792242,95.9383695 C36.6525384,104.519559 38.0082648,113.798923 43.0960473,121.397592 L43.195061,121.341738 C42.1693803,135.602254 51.7991004,149.169674 67.0929136,153.399338 C81.3178862,157.337038 96.5609231,153.88679 107.269639,144.401782 C115.005404,144.907006 122.748786,143.35833 129.735601,139.824302 C139.426252,134.916775 146.49177,126.777338 149.627205,116.90897 C156.093563,96.55784 147.189944,74.4396958 127.98128,63.1165871"></path>
</svg>
