<svg width="190px" height="210px" viewBox="0 0 190 210" version="1.1" xmlns="http://www.w3.org/2000/svg" xmlns:xlink="http://www.w3.org/1999/xlink">
  <path class="hexagon" fill="#A63F5B" d="M179.900651,143.933364 C179.896894,149.457974 176.022503,156.171679 171.240383,158.932637 L103.586843,197.992427 C98.8076649,200.751686 91.0510903,200.750588 86.2669572,197.992802 L18.7059454,159.047658 C13.9196145,156.288606 10.0425734,149.570834 10.046328,144.048761 L10.0993493,66.0666357 C10.1031056,60.5420255 13.977497,53.8283212 18.7596173,51.0673628 L86.4131574,12.0075732 C91.1923351,9.24831368 98.9489097,9.24941241 103.733043,12.0071976 L171.294055,50.9523421 C176.080386,53.7113942 179.957427,60.4291661 179.953672,65.9512395 L179.900651,143.933364 Z"></path>
  <path class="logo-graphic" fill="#EBEBEA" d="M66.8761129,116.383667 C66.8761129,106.071035 76.1825271,96.4570433 81.6222536,88.4512422 C87.1762232,80.2718796 89.0260817,72.3935035 87.670544,62.4763285 C106.481101,73.0174463 117.279265,90.8283763 112.351436,112.066598 C115.163572,108.375669 118.043815,104.774816 117.925178,99.9370622 C128.723343,115.24563 120.699966,136.40476 106.404206,147.176561 C114.790085,136.138925 111.617644,123.075673 98.9784084,117.96769 C100.599781,120.8721 102.990097,127.847517 97.7744625,128.425323 C87.2838753,129.585329 98.7521193,114.661233 100.439401,112.453266 C108.651719,101.699041 107.436788,88.4007116 94.2043674,82.5062099 C99.751746,94.7038519 92.7279957,100.420398 85.5592447,109.75757 C76.8745763,121.067631 71.294243,137.246204 84.2937833,148.233309 C72.4476583,142.723279 66.8761129,128.818583 66.8761129,116.383667 M91.2318512,147.42482 C80.2381552,143.685557 78.8035262,129.400783 83.373248,120.443689 C87.8726663,111.625004 100.050535,104.207994 100.797509,93.8909687 C106.349282,104.884665 92.9938305,111.119699 89.9883596,120.098763 C86.1700056,131.503294 102.001455,138.076663 104.890486,126.977512 C113.078637,136.411351 101.819106,149.729454 91.2318512,147.42482 M120.157311,95.8199186 C116.677292,92.1970959 116.136835,86.8650215 113.695988,82.5545435 C110.165439,76.3173127 105.261776,70.6117514 99.8528071,65.9387715 C94.3911108,61.221852 88.4592604,58.1175169 82.055059,55 C83.0898373,60.6726066 84.3113591,66.3144554 83.8104473,72.1276688 C82.771275,84.1495522 72.3312183,92.6299013 66.8870979,102.852457 C58.1826567,119.200197 64.5561003,142.732067 81.4201313,151.491433 C91.9480672,156.957523 103.187825,156.258883 112.147116,147.767549 C127.187653,133.513532 132.557076,112.727889 120.157311,95.8199186"></path>
</svg>
