<svg width="190px" height="210px" viewBox="0 0 190 210" version="1.1" xmlns="http://www.w3.org/2000/svg" xmlns:xlink="http://www.w3.org/1999/xlink">
  <path class="hexagon" fill="#E7792B" d="M179.900651,143.933364 C179.896894,149.457974 176.022503,156.171679 171.240383,158.932637 L103.586843,197.992427 C98.8076649,200.751686 91.0510903,200.750588 86.2669572,197.992802 L18.7059454,159.047658 C13.9196145,156.288606 10.0425734,149.570834 10.046328,144.048761 L10.0993493,66.0666357 C10.1031056,60.5420255 13.977497,53.8283212 18.7596173,51.0673628 L86.4131574,12.0075732 C91.1923351,9.24831368 98.9489097,9.24941241 103.733043,12.0071976 L171.294055,50.9523421 C176.080386,53.7113942 179.957427,60.4291661 179.953672,65.9512395 L179.900651,143.933364 Z"></path>
  <path class="logo-graphic" fill="#EBEBEA" d="M82.7570314,128.455212 L59.1455921,104.737414 L82.7570314,80.9132593 L75.8437722,74 L45,104.737414 L75.8437722,135.368471 L82.7570314,128.455212 Z M145,104.737414 L114.156228,74 L107.242969,80.9132593 L131.067124,104.737414 L107.242969,128.455212 L114.156228,135.368471 L145,104.737414 Z"></path>
</svg>
