<svg class="svg-hexagon-buffered" viewBox="0 0 190 210" version="1.1" xmlns="http://www.w3.org/2000/svg" xmlns:xlink="http://www.w3.org/1999/xlink">
  <path d="M179.900651,143.933364 C179.896894,149.457974 176.022503,156.171679 171.240383,158.932637 L103.586843,197.992427 C98.8076649,200.751686 91.0510903,200.750588 86.2669572,197.992802 L18.7059454,159.047658 C13.9196145,156.288606 10.0425734,149.570834 10.046328,144.048761 L10.0993493,66.0666357 C10.1031056,60.5420255 13.977497,53.8283212 18.7596173,51.0673628 L86.4131574,12.0075732 C91.1923351,9.24831368 98.9489097,9.24941241 103.733043,12.0071976 L171.294055,50.9523421 C176.080386,53.7113942 179.957427,60.4291661 179.953672,65.9512395 L179.900651,143.933364 Z"></path>
  <path class="logo-graphic logo-awards" d="M68.4062855,149.263956 C53.1422927,145.039958 44.4062968,130.019965 48.9302947,115.775971 C52.4422931,104.723977 64.8462872,98.3559796 76.7022816,101.443978 C76.3262818,102.283978 75.990282,103.151977 75.7062821,104.047977 C75.1782824,105.707976 74.8142825,107.371975 74.5902826,109.031975 C71.8382839,108.599975 69.0342853,109.019975 66.5462864,110.279974 C63.6022878,111.767973 61.4622888,114.239972 60.5062893,117.231971 C58.1422904,124.675967 62.7062882,132.523964 70.6822845,134.731963 C74.7902825,135.867962 79.2142805,135.595962 83.1182786,134.027963 C87.0902768,138.091961 92.2502743,141.227959 98.2982715,142.899959 C99.254271,143.163959 100.218271,143.383958 101.19027,143.587958 C91.9422745,150.227955 79.8102802,152.415954 68.4062855,149.263956 M72.2742837,96.3959805 C68.2382856,96.1719806 64.2782875,96.7879803 60.6382892,98.1319797 C61.3582889,97.0199802 62.3742884,96.0919807 63.6342878,95.455981 C65.4902869,94.5159814 67.6262859,94.3079815 69.654285,94.8679813 C70.6742845,95.1479811 71.5702841,95.6919809 72.2742837,96.3959805 M43.8142971,97.1639802 C47.3622954,85.9959854 59.9862895,79.6039884 71.9542839,82.9159869 C77.1302814,84.3479862 81.3302795,87.9519845 83.3262785,92.6199823 C81.6502793,94.0679816 80.15828,95.7199809 78.8982806,97.55198 C78.7222807,97.49998 78.5542808,97.43998 78.3822809,97.3959801 C78.2702809,97.3599801 78.150281,97.3359801 78.034281,97.3079801 C77.0262815,94.1799816 74.3702827,91.6679828 70.9662843,90.7319832 C67.7582859,89.8399836 64.3702874,90.1759835 61.4302888,91.6639828 C58.4862902,93.1519821 56.3422912,95.6199809 55.3902917,98.6159795 C55.1422918,99.4159791 54.9662919,100.231979 54.8622919,101.055978 C50.0822942,104.215977 46.3542959,108.815975 44.5382968,114.435972 C42.2902978,108.947975 41.998298,102.879977 43.8142971,97.1639802 M80.12628,130.491964 C77.5142813,131.295964 74.7062826,131.343964 71.9982839,130.587964 C66.4662865,129.059965 63.3022879,123.619968 64.9382872,118.45597 C65.5422869,116.567971 66.8942863,115.011972 68.7502854,114.071972 C70.4702846,113.199973 72.4342837,112.963973 74.3262828,113.379973 C74.3742827,116.647971 74.9902825,119.84397 76.0822819,122.871968 C75.2622823,123.143968 74.3462828,123.183968 73.4662832,122.943968 L72.1502838,127.079966 C74.0742829,127.607966 76.0742819,127.511966 77.8622811,126.867966 C78.5302808,128.115966 79.2862804,129.331965 80.12628,130.491964 M127.982258,63.1159962 L125.510259,66.7639945 C142.98225,77.0599896 151.078247,97.1759802 145.194249,115.683971 C142.410251,124.447967 136.138254,131.671964 127.530258,136.031962 C118.918262,140.39196 109.006266,141.359959 99.6182709,138.759961 C84.350278,134.539963 75.6142822,119.51997 80.14228,105.275976 C83.6862784,94.1119816 96.3102724,87.7199846 108.274267,91.0319831 C112.794265,92.2839825 116.526263,95.0959811 118.770262,98.9639793 C121.018261,102.827978 121.518261,107.279975 120.178261,111.491973 C118.038262,118.23197 110.426266,122.087968 103.206269,120.087969 C97.6742718,118.55997 94.5102733,113.119973 96.1502725,107.959975 C96.7502722,106.067976 98.1022716,104.511977 99.9582707,103.571977 C101.81427,102.627978 103.954269,102.419978 105.974268,102.983977 C107.478267,103.395977 108.714267,104.331977 109.462266,105.619976 C110.210266,106.899976 110.378266,108.379975 109.926266,109.779974 C109.266266,111.863973 106.910267,113.059973 104.678268,112.443973 L103.362269,116.579971 C108.042267,117.87597 112.978265,115.375972 114.362264,111.007974 C115.158264,108.499975 114.862264,105.855976 113.530264,103.559977 C112.194265,101.259978 109.978266,99.587979 107.290267,98.8439794 C104.082269,97.9559798 100.69427,98.2879796 97.7542717,99.7759789 C94.8102731,101.267978 92.6662741,103.735977 91.7142746,106.727976 C89.3502757,114.171972 93.9142736,122.019968 101.89427,124.227967 C111.554265,126.899966 121.74626,121.739969 124.610259,112.723973 C126.302258,107.399975 125.674259,101.783978 122.83826,96.9039803 C120.958261,93.6799818 118.262262,91.0359831 115.002264,89.1559839 C113.042265,75.0359906 104.530269,62.5879964 91.6542746,55 L89.1862758,58.6479983 C99.1062711,64.4959955 106.170268,73.5159913 109.182266,83.9479864 C105.678268,79.8959883 101.45827,76.3759899 96.7702722,73.6159912 L94.3062734,77.2639895 C98.3102715,79.6279884 101.93027,82.607987 105.006268,86.0239854 C98.6062713,85.3199857 92.3062743,86.7879851 87.1022768,89.9039836 C84.414278,84.5599861 79.3822804,80.467988 73.2662833,78.7799888 C58.85429,74.7919907 43.6502972,82.4919871 39.3782992,95.9399807 C36.6543005,104.519977 38.0062998,113.799972 43.0942974,121.395969 L43.1982974,121.339969 C42.1702979,135.603962 51.8022934,149.171956 67.0942862,153.399954 C81.3182795,157.335952 96.5622723,153.887953 107.270267,144.403958 C115.006264,144.907958 122.75026,143.359958 129.734257,139.82396 C139.430252,134.915962 146.494249,126.775966 149.626247,116.911971 C156.094244,96.5599805 147.190248,74.4399909 127.982258,63.1159962"></path>
  <path class="logo-graphic logo-conf" d="M82.932,55 L83.988,60.792 C84.004,60.888 85.724,70.564 83.272,77.924 C82.388,80.568 79.352,84.796 76.136,89.276 C69.98,97.844 63,107.56 63,116.228 C63,128.236 68.62,149.736 89.672,154.152 L91.232,148.408 C85.676,146.548 80.02,140.076 79.912,129.8 C79.82,121.488 88.18,111.852 93.708,105.472 C95.892,102.956 97.616,100.968 98.62,99.356 C100.188,96.84 100.6,93.88 100.484,91.124 C101.852,92.996 102.92,95.348 102.96,98.156 C103.04,103.676 101.544,105.508 97.928,109.932 C96.188,112.064 94.02,114.712 91.552,118.428 C90.348,120.24 89.152,125.252 91.052,128.792 C92.224,130.984 94.332,132.192 96.98,132.192 C97.508,132.192 98.064,132.14 98.636,132.044 C101.804,131.512 103.328,129.744 104.052,128.356 C104.504,127.484 104.752,126.552 104.856,125.612 C107.14,127.836 109.068,131.004 108.108,135.008 C105.352,146.456 101.504,148.864 96.18,149.036 L96.212,154.996 L96.6,155 C115.104,155 127.396,125.384 127.396,118.28 C127.396,117.072 127.48,116.028 127.56,115.016 C127.984,109.632 127.852,106.08 120.252,95.716 L117.668,92.192 C116.256,85.632 112.748,80.036 107.584,73.584 C99.052,62.916 88.664,57.788 88.224,57.576 L82.932,55 Z M86.92,60.256 C86.92,60.256 97.048,65.18 105.256,75.444 C113.468,85.708 117.576,93.648 114.152,108.972 C118.804,102.68 117.712,101.312 117.848,97.48 C126.88,109.796 124.416,111.3 124.416,118.28 C124.416,124.908 112.62,152.02 96.6,152.02 C96.492,152.02 96.384,152.016 96.276,152.016 C103.776,151.772 108.164,147.516 111.004,135.704 C113.604,124.896 100.604,119.148 100.604,119.148 C100.604,119.148 104.848,127.98 98.14,129.104 C97.724,129.176 97.336,129.208 96.98,129.208 C91.616,129.208 92.94,121.728 94.036,120.08 C101.564,108.748 106.08,107.788 105.94,98.116 C105.8,88.144 95.68,83.156 95.68,83.156 C95.68,83.156 99.512,92.284 96.088,97.78 C92.668,103.272 76.792,117.116 76.932,129.832 C77.048,140.724 82.992,148.796 90.284,151.236 C71.316,147.256 65.984,127.812 65.984,116.228 C65.984,103.912 83.36,87.076 86.1,78.868 C88.836,70.656 86.92,60.256 86.92,60.256 Z M91.2316,148.4076 L96.1796,149.0356 L96.2116,154.9956 L89.6716,154.1516 L91.2316,148.4076 Z"></path>
  <path class="logo-graphic logo-svef" d="M82.7570314,128.455212 L59.1455921,104.737414 L82.7570314,80.9132593 L75.8437722,74 L45,104.737414 L75.8437722,135.368471 L82.7570314,128.455212 Z M145,104.737414 L114.156228,74 L107.242969,80.9132593 L131.067124,104.737414 L107.242969,128.455212 L114.156228,135.368471 L145,104.737414 Z"></path>
</svg>
