<svg class="svg-logo-svef" viewBox="0 0 486 117" version="1.1" xmlns="http://www.w3.org/2000/svg" xmlns:xlink="http://www.w3.org/1999/xlink">
  <g class="svef-logo" stroke="none" stroke-width="1" fill="none" fill-rule="evenodd">
    <g class="samtok-vefidnadarins" transform="translate(47.000000, 88.000000)" fill="#E7792B">
      <path d="M0.872,27.071 L2.469,23.542 C4.177,24.635 5.857,25.181 7.509,25.181 C10.049,25.181 11.318,24.377 11.318,22.769 C11.318,22.016 11.019,21.297 10.419,20.614 C9.819,19.931 8.584,19.164 6.712,18.315 C4.84,17.466 3.58,16.767 2.93,16.219 C2.28,15.671 1.781,15.02 1.431,14.265 C1.081,13.511 0.906,12.676 0.906,11.761 C0.906,10.051 1.596,8.633 2.975,7.507 C4.354,6.38 6.124,5.817 8.285,5.817 C11.099,5.817 13.165,6.296 14.483,7.254 L13.17,10.642 C11.653,9.652 10.052,9.158 8.368,9.158 C7.371,9.158 6.598,9.396 6.05,9.874 C5.502,10.351 5.227,10.972 5.227,11.735 C5.227,13.002 6.774,14.318 9.868,15.685 C11.498,16.409 12.673,17.075 13.394,17.684 C14.115,18.292 14.664,19.002 15.041,19.811 C15.418,20.621 15.606,21.524 15.606,22.52 C15.606,24.311 14.828,25.785 13.272,26.941 C11.716,28.098 9.632,28.676 7.018,28.676 C4.748,28.676 2.699,28.141 0.872,27.071"></path>
      <path d="M34.737,28.306 L32.952,23.821 L24.567,23.821 L22.861,28.306 L18.063,28.306 L27.795,5.879 L29.701,5.879 L39.501,28.306 L34.737,28.306 L34.737,28.306 Z M28.748,12.653 L25.805,20.82 L31.683,20.82 L28.748,12.653 L28.748,12.653 Z"></path>
      <path d="M65.827,28.306 L61.641,28.306 L59.106,16.396 L54.223,28.615 L52.692,28.615 L47.809,16.396 L45.206,28.306 L41.02,28.306 L45.92,6.189 L48.2,6.189 L53.458,21.098 L58.579,6.189 L60.859,6.189 L65.827,28.306"></path>
      <path d="M79.541,9.684 L79.541,28.306 L75.219,28.306 L75.219,9.684 L67.461,9.684 L67.461,6.189 L87.639,6.189 L87.639,9.684 L79.541,9.684"></path>
      <path d="M90.438,17.05 C90.438,13.899 91.388,11.234 93.288,9.055 C95.187,6.876 97.727,5.786 100.906,5.786 C104.406,5.786 107.081,6.772 108.931,8.745 C110.781,10.718 111.706,13.486 111.706,17.05 C111.706,20.613 110.739,23.442 108.806,25.536 C106.873,27.629 104.129,28.676 100.574,28.676 C97.306,28.676 94.8,27.64 93.055,25.566 C91.31,23.492 90.438,20.654 90.438,17.05 L90.438,17.05 Z M94.93,17.05 C94.93,19.635 95.411,21.636 96.374,23.054 C97.337,24.472 98.737,25.181 100.574,25.181 C102.732,25.181 104.378,24.487 105.513,23.099 C106.647,21.711 107.214,19.695 107.214,17.05 C107.214,11.871 105.111,9.281 100.906,9.281 C98.98,9.281 97.503,9.983 96.473,11.386 C95.444,12.789 94.93,14.677 94.93,17.05 L94.93,17.05 Z M96.01,0.063 C96.663,0.063 97.219,0.275 97.678,0.697 C98.137,1.119 98.366,1.627 98.366,2.221 C98.366,2.814 98.137,3.319 97.678,3.737 C97.219,4.154 96.663,4.363 96.01,4.363 C95.357,4.363 94.798,4.154 94.334,3.737 C93.869,3.319 93.637,2.814 93.637,2.221 C93.637,1.627 93.869,1.119 94.334,0.697 C94.798,0.275 95.357,0.063 96.01,0.063 L96.01,0.063 Z M106.321,0.063 C106.973,0.063 107.529,0.275 107.988,0.697 C108.447,1.119 108.677,1.627 108.677,2.221 C108.677,2.814 108.447,3.319 107.988,3.737 C107.529,4.154 106.973,4.363 106.321,4.363 C105.668,4.363 105.109,4.154 104.644,3.737 C104.18,3.319 103.947,2.814 103.947,2.221 C103.947,1.627 104.18,1.119 104.644,0.697 C105.109,0.275 105.668,0.063 106.321,0.063 L106.321,0.063 Z"></path>
      <path d="M130.453,28.306 L123.67,18.885 L120.959,22.252 L120.959,28.306 L116.638,28.306 L116.638,6.189 L120.959,6.189 L120.959,16.776 L129.228,6.189 L134.162,6.189 L126.53,15.851 L135.625,28.306 L130.453,28.306"></path>
      <path d="M159.219,28.615 L156.837,28.615 L147.718,6.189 L152.482,6.189 L158.113,21.129 L164.051,6.189 L168.713,6.189 L159.219,28.615"></path>
      <path d="M176.72,9.684 L176.72,14.85 L184.614,14.85 L184.614,18.191 L176.72,18.191 L176.72,24.811 L187.779,24.811 L187.779,28.306 L172.398,28.306 L172.398,6.189 L187.779,6.189 L187.779,9.684 L176.72,9.684"></path>
      <path d="M197.21,9.684 L197.21,14.85 L205.751,14.85 L205.751,18.191 L197.21,18.191 L197.21,28.306 L192.888,28.306 L192.888,6.189 L208.916,6.189 L208.916,9.684 L197.21,9.684"></path>
      <path d="M213.944,28.306 L218.2657,28.306 L218.2657,6.189 L213.944,6.189 L213.944,28.306 Z"></path>
      <path d="M224.455,17.819 L222.379,17.819 L222.379,14.725 L224.455,14.725 L224.455,6.2 C227.898,6.089 230.062,6.033 230.948,6.033 C234.491,6.033 237.3,6.977 239.376,8.864 C241.452,10.752 242.49,13.256 242.49,16.377 C242.49,24.329 238.277,28.305 229.852,28.305 L224.455,28.305 L224.455,17.819 L224.455,17.819 Z M231.056,14.725 L231.056,17.819 L228.777,17.819 L228.777,24.719 C229.473,24.78 230.225,24.81 231.032,24.81 C233.211,24.81 234.916,24.091 236.149,22.653 C237.382,21.215 237.998,19.203 237.998,16.619 C237.998,11.892 235.582,9.529 230.75,9.529 C230.286,9.529 229.628,9.564 228.777,9.635 L228.777,14.725 L231.056,14.725 L231.056,14.725 Z"></path>
      <path d="M264.126,28.615 L252.318,14.602 L252.318,28.306 L248.167,28.306 L248.167,6.189 L250.243,6.189 L261.744,19.551 L261.744,6.189 L265.896,6.189 L265.896,28.615 L264.126,28.615"></path>
      <path d="M286.232,28.306 L284.447,23.821 L276.062,23.821 L274.356,28.306 L269.558,28.306 L279.29,5.879 L281.196,5.879 L290.996,28.306 L286.232,28.306 L286.232,28.306 Z M280.243,12.653 L277.3,20.82 L283.179,20.82 L280.243,12.653 L280.243,12.653 Z"></path>
      <path d="M294.625,17.819 L292.549,17.819 L292.549,14.725 L294.625,14.725 L294.625,6.2 C298.068,6.089 300.232,6.033 301.118,6.033 C304.661,6.033 307.47,6.977 309.546,8.864 C311.622,10.752 312.66,13.256 312.66,16.377 C312.66,24.329 308.447,28.305 300.022,28.305 L294.625,28.305 L294.625,17.819 L294.625,17.819 Z M301.226,14.725 L301.226,17.819 L298.947,17.819 L298.947,24.719 C299.643,24.78 300.395,24.81 301.202,24.81 C303.38,24.81 305.086,24.091 306.319,22.653 C307.552,21.215 308.168,19.203 308.168,16.619 C308.168,11.892 305.752,9.529 300.92,9.529 C300.456,9.529 299.798,9.564 298.947,9.635 L298.947,14.725 L301.226,14.725 L301.226,14.725 Z"></path>
      <path d="M331.842,28.306 L330.057,23.821 L321.672,23.821 L319.966,28.306 L315.168,28.306 L324.9,5.879 L326.806,5.879 L336.606,28.306 L331.842,28.306 L331.842,28.306 Z M325.853,12.653 L322.91,20.82 L328.789,20.82 L325.853,12.653 L325.853,12.653 Z"></path>
      <path d="M353.982,28.306 L347.469,19.181 C346.815,19.171 345.901,19.135 344.727,19.075 L344.727,28.306 L340.235,28.306 L340.235,6.168 C340.479,6.168 341.415,6.13 343.045,6.054 C344.674,5.979 345.987,5.941 346.985,5.941 C353.17,5.941 356.262,8.12 356.262,12.478 C356.262,13.79 355.835,14.985 354.982,16.064 C354.129,17.144 353.054,17.906 351.758,18.35 L358.95,28.306 L353.982,28.306 L353.982,28.306 Z M344.727,9.589 L344.727,15.75 C345.524,15.81 346.133,15.84 346.554,15.84 C348.359,15.84 349.68,15.608 350.516,15.143 C351.352,14.679 351.77,13.776 351.77,12.435 C351.77,11.345 351.322,10.583 350.425,10.149 C349.527,9.715 348.115,9.499 346.189,9.499 C345.723,9.499 345.236,9.529 344.727,9.589 L344.727,9.589 Z"></path>
      <path d="M362.216,28.306 L366.5374,28.306 L366.5374,6.189 L362.216,6.189 L362.216,28.306 Z"></path>
      <path d="M388.687,28.615 L376.879,14.602 L376.879,28.306 L372.728,28.306 L372.728,6.189 L374.804,6.189 L386.305,19.551 L386.305,6.189 L390.456,6.189 L390.456,28.615 L388.687,28.615"></path>
      <path d="M395.413,27.071 L397.01,23.542 C398.718,24.635 400.398,25.181 402.05,25.181 C404.59,25.181 405.86,24.377 405.86,22.769 C405.86,22.016 405.56,21.297 404.96,20.614 C404.36,19.931 403.125,19.164 401.253,18.315 C399.381,17.466 398.121,16.767 397.471,16.219 C396.821,15.671 396.322,15.02 395.972,14.265 C395.622,13.511 395.447,12.676 395.447,11.761 C395.447,10.051 396.137,8.633 397.516,7.507 C398.895,6.38 400.666,5.817 402.826,5.817 C405.64,5.817 407.706,6.296 409.024,7.254 L407.711,10.642 C406.194,9.652 404.593,9.158 402.909,9.158 C401.912,9.158 401.139,9.396 400.591,9.874 C400.043,10.351 399.768,10.972 399.768,11.735 C399.768,13.002 401.315,14.318 404.409,15.685 C406.039,16.409 407.214,17.075 407.935,17.684 C408.656,18.292 409.205,19.002 409.582,19.811 C409.959,20.621 410.147,21.524 410.147,22.52 C410.147,24.311 409.369,25.785 407.813,26.941 C406.257,28.098 404.173,28.676 401.559,28.676 C399.289,28.676 397.24,28.141 395.413,27.071"></path>
    </g>
    <g class="svef" fill="#E7792B">
      <path d="M421,6.86999989 L486,31.6389586 L486,43.545993 L421,68.3671096 L421,54.282485 L465.990784,37.5909712 L421,20.9546244 L421,6.86999989 Z" class="right"></path>
      <path d="M329,75 L329,57 L338,57 L338,19 L329,19 L329,1 L409,1 L409,25 L387,25 L387,19 L369,19 L369,30 L383,30 L383,45 L369,45 L369,57 L379,57 L379,75 L329,75 Z" class="letter-f"></path>
      <path d="M241,75 L241,57 L248,57 L248,19 L241,19 L241,1 L319,1 L319,25 L298,25 L298,19 L279,19 L279,30 L295,30 L295,45 L279,45 L279,57 L298,57 L298,51 L319,51 L319,75 L241,75 Z" class="letter-e"></path>
      <path d="M179.070007,76 L153.037946,19 L147,19 L147,1 L191,1 L191,19 L183.935483,19 L196.07061,50.4893643 L208.79407,19 L202,19 L202,1 L235,1 L235,19 L228.96105,19 L204.454861,76 L179.070007,76 Z" class="letter-v"></path>
      <path d="M78.0004981,75 L78.0004981,51 L96.2481807,51 C98.4254723,57.7176719 102.525256,60.9524614 108.549529,60.9524614 C112.902114,60.9524614 115.078406,59.3556289 115.078406,56.1619638 C115.078406,54.4929128 114.320001,53.1097268 112.804191,52.0093969 C111.172471,50.8027451 107.733169,49.1346971 102.486286,47.0062558 C95.8794699,44.272984 91.0212818,41.9128415 87.9127208,39.9248251 C84.9970085,38.1163521 82.5099599,35.6137785 80.4505757,32.4191105 C78.3901923,29.2605517 77.3600006,25.765976 77.3600006,21.9323743 C77.3600006,15.0465356 79.8080798,9.67026528 84.7052374,5.80356342 C89.5624264,1.93485548 95.5477302,0 102.659151,0 C109.77157,0 115.794844,1.85360961 121,5.55999994 L121,1 L139,1 L139,22 L120.964788,22 C118.749526,16.2110598 114.824605,13.3032599 109.190026,13.3032599 C105.226136,13.3032599 103.243692,14.8479345 103.243692,17.9372839 C103.243692,19.4277946 103.80725,20.5471823 104.933366,21.2934407 C106.021512,22.0748053 109.538753,23.7970173 115.485087,26.4610796 C123.452835,30.0830408 128.776658,32.7280454 131.459553,34.3970965 C132.819486,35.2135674 134.209396,36.3580309 135.628282,37.8324931 C137.047169,39.3059522 138.222247,40.824548 139.154516,42.3872773 C141.291839,45.8668074 142.360001,49.6322027 142.360001,53.6800003 C142.360001,59.895262 139.833983,65.150165 134.781946,69.4471691 C129.72991,73.8153887 123.356911,76 115.660949,76 C108.510559,76 102.039637,74.0731688 96,70.2200012 L96,75 L78.0004981,75 Z" class="letter-s"></path>
      <path d="M65,68.3671096 L0,43.545993 L0,31.6389586 L65,6.86999989 L65,20.9546244 L20.2020142,37.5909712 L65,54.282485 L65,68.3671096 Z" class="left"></path>
    </g>
  </g>
</svg>
